<?xml version="1.0" encoding="utf-8"?>
<!-- Svg Vector Icons : http://www.onlinewebfonts.com/icon -->
<!DOCTYPE svg PUBLIC "-//W3C//DTD SVG 1.1//EN" "http://www.w3.org/Graphics/SVG/1.1/DTD/svg11.dtd">
<svg version="1.1" xmlns="http://www.w3.org/2000/svg" xmlns:xlink="http://www.w3.org/1999/xlink" x="0px" y="0px" viewBox="0 0 1000 1000" enable-background="new 0 0 1000 1000" xml:space="preserve">
<metadata> Svg Vector Icons : http://www.onlinewebfonts.com/icon </metadata>
<g><g transform="matrix(1 0 0 -1 0 1638)"><path d="M793.8,844H328.7c-7,0-12.9,2.4-17.7,7.2s-7.2,10.5-7.2,17.2c0,7,2.4,12.9,7.2,17.7s10.7,7.2,17.7,7.2h465.1c20.4,0,39.6,3.8,57.4,11.5s33.4,18.1,46.7,31.3c13.2,13.2,23.8,28.8,31.6,46.7s11.7,37,11.7,57.4c0,20.1-3.9,39.1-11.7,56.9s-18.3,33.5-31.6,46.9s-28.8,23.9-46.7,31.6s-37,11.5-57.4,11.5c-8.3,0-16.5-0.7-24.6-2.2s-16.2-3.4-24.2-6c-5.4-1.9-10.8-2-16-0.2s-9.5,5-12.7,9.8c-3.2,4.5-4.5,9.6-4.1,15.3s2.6,10.7,6.5,14.8c8.6,8.9,15.2,19.1,19.6,30.6s6.7,23.4,6.7,35.9c0,13.4-2.6,26.1-7.7,38s-12.1,22.3-21.1,31.1s-19.3,15.8-31.1,21.1s-24.6,7.9-38.3,7.9c-12.8,0-24.9-2.4-36.4-7.2s-21.7-11.3-30.6-19.6s-16.1-18-21.5-29.2s-8.5-23.1-9.1-35.9c-0.3-5.4-2.2-10.1-5.5-14.1s-7.4-6.6-12.2-7.9c-5.1-1.6-10.1-1.5-15.1,0.2s-8.9,4.7-11.7,8.9c-11.5,16.6-24.6,31.3-39.5,44.3s-30.9,23.8-48.1,32.8s-35.4,15.8-54.6,20.6s-38.8,7.2-58.9,7.2c-33.5,0-65.2-6.5-95-19.4s-55.8-30.5-78-52.6s-39.7-48.2-52.6-78s-19.4-61.5-19.4-95c0-3.8,0.1-7.6,0.2-11.2s0.4-7.4,0.7-11.2c0.6-6.7-1.2-12.7-5.5-17.9s-9.8-8.2-16.5-8.9s-12.7,1.3-17.9,5.7s-8.1,10-8.4,16.7c-0.6,4.5-1,8.9-1.2,13.4s-0.2,8.9-0.2,13.4c0,40.5,7.7,78.6,23.2,114.1s36.5,66.7,63.2,93.3s57.7,47.7,93.3,63.2s73.6,23.2,114.1,23.2c19.8,0,39.2-1.9,58.4-5.7s37.6-9.5,55.3-17s34.6-16.7,50.7-27.5s31-23.1,44.7-36.8c5.7,12.8,13.2,24.5,22.3,35.2s19.5,19.9,31.1,27.5s24.3,13.6,38,17.9s27.9,6.5,42.6,6.5c20.4,0,39.6-3.8,57.4-11.5s33.4-18.2,46.7-31.6s23.7-29,31.3-46.9s11.5-36.8,11.5-56.9c0-8.6-0.7-17-2.2-25.1s-3.4-16.2-6-24.2h4.1h4.1c27.1,0,52.6-5.1,76.3-15.3s44.6-24.2,62.4-41.9s31.9-38.5,42.1-62.4s15.3-49.3,15.3-76.1c0-27.1-5.1-52.6-15.3-76.3s-24.2-44.5-42.1-62.2s-38.7-31.7-62.4-42.1S820.9,844,793.8,844L793.8,844z M181.3,868.4c-2.9,0-5.8,0.6-8.9,1.9s-5.8,3-8.4,5.3L66,973.6c-4.8,4.8-7.2,10.6-7.2,17.5s2.4,12.7,7.2,17.5s10.6,7.2,17.5,7.2s12.7-2.4,17.5-7.2l80.4-80.9l227.8,227.8c4.8,4.8,10.6,7.2,17.5,7.2s12.7-2.4,17.5-7.2s7.2-10.6,7.2-17.5c0-6.9-2.4-12.7-7.2-17.5l-245-245c-2.6-2.2-5.3-4-8.4-5.3S184.5,868.4,181.3,868.4L181.3,868.4z"/></g></g>
</svg>