<svg xmlns="http://www.w3.org/2000/svg" xmlns:xlink="http://www.w3.org/1999/xlink" width="256.599" height="41.852" viewBox="0 0 256.599 41.852"><defs><clipPath id="a"><rect width="256.599" height="41.852" fill="none"/></clipPath></defs><g clip-path="url(#a)"><path d="M20.465,10.388A7.924,7.924,0,0,0,5.658,8.273a6.343,6.343,0,0,0,.687,12.649H20.095a5.273,5.273,0,0,0,.37-10.534Zm-.37,8.419H6.346a4.23,4.23,0,0,1,0-8.461H7.1a5.816,5.816,0,0,1,11.412,1.586v.529h1.586a3.173,3.173,0,0,1,0,6.346Z" transform="translate(7.425 14.058)" fill="#fff"/><g fill="none" stroke="#fff" stroke-width="2"><rect width="41.852" height="41.852" rx="5" stroke="none"/><rect x="1" y="1" width="39.852" height="39.852" rx="4" fill="none"/></g><text transform="translate(50.599 34.058)" fill="#fff" font-size="27" font-family="Helvetica"><tspan x="0" y="0">cloudprobes.com</tspan></text></g></svg>